<svg xmlns="http://www.w3.org/2000/svg" width="800" height="600" viewBox="0 0 800 600">
  <style>
    .st0{fill:#F5F7FA;}
    .st1{fill:#E1E6EF;}
    .st2{fill:#4A6BFF;}
    .st3{fill:#FFFFFF;}
    .st4{fill:#D1D8E6;}
    .st5{fill:#8A94A6;}
  </style>
  <rect class="st0" width="800" height="600"/>
  <g>
    <path class="st1" d="M650,500H150c-5.5,0-10-4.5-10-10V110c0-5.5,4.5-10,10-10h500c5.5,0,10,4.5,10,10v380C660,495.5,655.5,500,650,500z"/>
    <rect x="170" y="130" class="st3" width="460" height="340"/>
    <rect x="200" y="170" class="st4" width="180" height="20"/>
    <rect x="200" y="200" class="st4" width="400" height="10"/>
    <rect x="200" y="220" class="st4" width="400" height="10"/>
    <rect x="200" y="240" class="st4" width="400" height="10"/>
    <rect x="200" y="280" class="st4" width="120" height="120"/>
    <rect x="340" y="280" class="st4" width="120" height="120"/>
    <rect x="480" y="280" class="st4" width="120" height="120"/>
    <rect x="200" y="420" class="st2" width="120" height="30"/>
  </g>
  <g>
    <circle class="st2" cx="400" cy="180" r="40"/>
    <path class="st3" d="M415,180l-20,15l-10-7.5l5-5l5,2.5l15-10L415,180z"/>
  </g>
  <g>
    <rect x="350" y="420" class="st5" width="120" height="30"/>
    <rect x="500" y="420" class="st1" width="120" height="30"/>
  </g>
  <g>
    <circle class="st2" cx="260" cy="340" r="20"/>
    <circle class="st2" cx="400" cy="340" r="20"/>
    <circle class="st2" cx="540" cy="340" r="20"/>
  </g>
</svg>
